<svg preserveAspectRatio="none" width="100%" height="100%" overflow="visible" style="display: block;" viewBox="0 0 28 30" fill="none" xmlns="http://www.w3.org/2000/svg">
<g id="Vector">
<path fill-rule="evenodd" clip-rule="evenodd" d="M17.878 1.85183C18.2914 3.09248 17.3923 5.24806 14.659 6.14714C11.9257 7.04621 9.90959 5.84957 9.49621 4.60892C9.08282 3.36828 9.98198 1.2127 12.7153 0.313619C15.4485 -0.585459 17.4647 0.611181 17.878 1.85183Z" fill="var(--fill-0, white)"/>
<path fill-rule="evenodd" clip-rule="evenodd" d="M20.0436 15.7653C19.7685 16.6629 18.9109 17.5248 17.3209 18.0086C15.7442 18.4882 13.6495 18.5102 11.4488 17.8443C9.24804 17.1784 7.52121 16.0001 6.48127 14.7287C5.43253 13.4465 5.20399 12.2559 5.47911 11.3583C5.75423 10.4607 6.61188 9.59878 8.20187 9.11505C9.77852 8.63539 11.8733 8.6134 14.074 9.27929C16.2747 9.94519 18.0015 11.1235 19.0415 12.3949C20.0902 13.6771 20.3188 14.8677 20.0436 15.7653Z" fill="var(--fill-0, white)"/>
<path fill-rule="evenodd" clip-rule="evenodd" d="M15.856 20.2468C17.0451 20.2468 18.3991 19.9985 19.6944 19.7472L20.0806 19.672C21.2777 19.4383 22.4372 19.212 23.5202 19.1221C24.7269 19.0221 25.6966 19.1073 26.4138 19.4471C27.071 19.7584 27.6229 20.3338 27.9162 21.4998C28.3131 23.0773 27.3036 25.1503 24.8082 26.9562C22.377 28.7156 18.7877 30 14.7739 30C10.6262 30 6.22298 29.3831 3.27855 28.0751C1.80122 27.4188 0.815133 26.6431 0.341158 25.8054C-0.09576 25.0331 -0.176453 24.0684 0.477627 22.7687C1.30726 21.1202 3.35544 20.3767 6.38055 20.1541C7.84745 20.0461 9.44445 20.0671 11.0722 20.1174C11.5125 20.131 11.9566 20.1469 12.4006 20.1627C13.5789 20.2048 14.756 20.2468 15.856 20.2468Z" fill="var(--fill-0, white)"/>
</g>
</svg>
